<svg xmlns="http://www.w3.org/2000/svg" viewBox="0 0 130 130" id="stock-market">
  <circle cx="65" cy="65" r="64" fill="#168DE2"></circle>
  <path fill="#2E6BCE" d="M100.298 19.707a1.005 1.005 0 1 1 0-2.01h7.81a64.393 64.393 0 0 1 2.109 2.01h-9.92zM91.2 18.702c0 .555.45 1.005 1.005 1.005h4.123c.553 0 1.005-.453 1.005-1.005s-.452-1.006-1.005-1.006h-4.123c-.555 0-1.005.45-1.005 1.006zM26.09 77.685c0-.556-.45-1.006-1.005-1.006H9.077c-.553 0-1.005.453-1.005 1.006s.452 1.005 1.005 1.005h16.008c.555 0 1.005-.45 1.005-1.005zm1.561 0c0 .555.45 1.005 1.005 1.005h4.808a1.005 1.005 0 1 0 0-2.01h-4.808c-.555 0-1.005.45-1.005 1.005zm84.76-26.071c0-.555-.45-1.005-1.005-1.005h-10.758c-.553 0-1.005.452-1.005 1.005 0 .553.452 1.005 1.005 1.005h10.758c.555 0 1.005-.45 1.005-1.005zm1.561 0c0 .555.45 1.005 1.005 1.005h4.808a1.005 1.005 0 1 0 0-2.01h-4.808c-.555 0-1.005.45-1.005 1.005zM89.61 124.088h-4.523a1.005 1.005 0 0 1 0-2.01h8.85a63.63 63.63 0 0 1-4.327 2.01zm-17.618-2.01h8.956a1.005 1.005 0 0 1 0 2.01H71.99a1.008 1.008 0 0 1-1.005-1.006c0-.552.452-1.005 1.005-1.005zm-26.29-11.089h-12.75a1.005 1.005 0 0 0 0 2.01h12.75c.554 0 1.006-.452 1.006-1.004 0-.553-.452-1.006-1.005-1.006zm-16.367 1.006c0-.556-.45-1.006-1.005-1.006h-1.08a1.005 1.005 0 0 0 0 2.01h1.08c.555 0 1.005-.45 1.005-1.004zM55.773 6.99h12.75a1.005 1.005 0 0 1 0 2.01h-12.75c-.553 0-1.005-.452-1.005-1.004s.452-1.006 1.005-1.006zm-23.55 14.66h12.75a1.005 1.005 0 0 1 0 2.01h-12.75a1.008 1.008 0 0 1-1.005-1.005c0-.552.452-1.005 1.005-1.005zM72.14 7.996c0-.556.45-1.006 1.005-1.006h1.08a1.005 1.005 0 0 1 0 2.01h-1.08c-.555 0-1.005-.45-1.005-1.004zm46.494 84.579h-12.75a1.005 1.005 0 0 1 0-2.01h12.75c.553 0 1.005.451 1.005 1.004 0 .553-.452 1.006-1.005 1.006zm-16.368-1.006c0 .555-.45 1.006-1.005 1.006h-1.08a1.005 1.005 0 0 1 0-2.01h1.08c.555 0 1.005.45 1.005 1.004zm-82.482-53.9c0-.556-.45-1.006-1.005-1.006h-1.671a1.005 1.005 0 1 0 0 2.01h1.671c.555 0 1.005-.45 1.005-1.005zm-7.346 1.005H6.668c.305-.676.616-1.348.944-2.01h4.827a1.005 1.005 0 1 1 0 2.01z"></path>
  <path fill="#2E6BCE" d="M107.035 30.685v71.484a4.86 4.86 0 0 1-4.86 4.86H30.678a4.86 4.86 0 0 1-4.86-4.86V30.685a4.86 4.86 0 0 1 4.86-4.86h71.497a4.86 4.86 0 0 1 4.86 4.86z"></path>
  <path fill="#FFF" d="M105.608 29.258v71.484a4.86 4.86 0 0 1-4.86 4.86H29.252a4.86 4.86 0 0 1-4.86-4.86V29.258a4.86 4.86 0 0 1 4.86-4.86h71.498a4.86 4.86 0 0 1 4.86 4.86z"></path>
  <path fill="#EDEDED" d="M105.607 29.256v71.49c0 2.68-2.17 4.86-4.86 4.86h-71.5c-2.16 0-4-1.42-4.63-3.37.47.16.98.24 1.51.24h71.5c2.68 0 4.86-2.17 4.86-4.86v-71.48c0-.53-.08-1.03-.24-1.5 1.95.63 3.36 2.46 3.36 4.62z"></path>
  <path fill="#EDEDED" d="M99.71 39.145H30.29a.713.713 0 1 1 0-1.427h69.42a.713.713 0 1 1 0 1.427zm0 8.856H30.29a.713.713 0 1 1 0-1.427h69.42a.713.713 0 1 1 0 1.427zm0 8.856H30.29a.713.713 0 1 1 0-1.427h69.42a.713.713 0 1 1 0 1.427zm0 8.857H30.29a.713.713 0 1 1 0-1.427h69.42a.713.713 0 1 1 0 1.427zm0 8.856H30.29a.713.713 0 1 1 0-1.427h69.42a.713.713 0 1 1 0 1.427zm0 8.856H30.29a.713.713 0 1 1 0-1.427h69.42a.713.713 0 1 1 0 1.427zm0 8.857H30.29a.713.713 0 1 1 0-1.427h69.42a.713.713 0 1 1 0 1.427z"></path>
  <path fill="#EDEDED" d="M91.569 100.423a.713.713 0 0 1-.714-.713V30.29a.713.713 0 1 1 1.427 0v69.42c0 .394-.319.713-.713.713zm-8.856 0a.713.713 0 0 1-.714-.713V30.29a.713.713 0 1 1 1.427 0v69.42c0 .394-.319.713-.713.713zm-8.857 0a.713.713 0 0 1-.713-.713V30.29a.713.713 0 1 1 1.427 0v69.42c0 .394-.32.713-.714.713zm-8.856 0a.713.713 0 0 1-.714-.713V30.29a.713.713 0 1 1 1.427 0v69.42c0 .394-.319.713-.713.713zm-8.856 0a.713.713 0 0 1-.714-.713V30.29a.713.713 0 1 1 1.427 0v69.42c0 .394-.319.713-.713.713zm-8.857 0a.713.713 0 0 1-.713-.713V30.29a.713.713 0 1 1 1.427 0v69.42c0 .394-.32.713-.714.713zm-8.856 0a.713.713 0 0 1-.714-.713V30.29a.713.713 0 1 1 1.427 0v69.42c0 .394-.32.713-.713.713z"></path>
  <path fill="#F34B50" d="m99.385 49.366-1.775 7.663c-.2.847-1.254 1.151-1.87.536l-1.534-1.535L77.76 72.477c-.751.75-2.078.75-2.821 0l-9.39-9.39-10.005 10.005a2.002 2.002 0 0 1-2.83 0l-4.123-4.124-6.033 6.034a1.999 1.999 0 0 1-1.415.591c-.511 0-1.023-.2-1.414-.591a1.987 1.987 0 0 1 0-2.821l7.448-7.456a2.002 2.002 0 0 1 1.414-.583c.536 0 1.04.207 1.415.583l4.123 4.124 10.006-9.998a1.987 1.987 0 0 1 2.82 0l9.39 9.382 15.032-15.032-1.534-1.534c-.615-.615-.312-1.67.535-1.87l7.664-1.766a1.118 1.118 0 0 1 1.343 1.335z"></path>
  <path fill="#E53946" d="m47.984 68.361.607.607-6.033 6.034a1.999 1.999 0 0 1-1.415.591c-.511 0-1.023-.2-1.414-.591a2.186 2.186 0 0 1-.272-.336c.328.216.703.32 1.079.32.512 0 1.023-.2 1.414-.591l6.034-6.034zm16.958-5.882.607.608-10.005 10.005a2.002 2.002 0 0 1-2.83 0l-.606-.607a2.002 2.002 0 0 0 2.828 0l10.006-10.006zm28.657-7.056.607.607L77.76 72.477c-.751.75-2.078.75-2.821 0l-.607-.608c.743.751 2.07.751 2.82 0L93.6 55.423zm5.786-6.057-1.775 7.663c-.2.847-1.254 1.151-1.87.536l-.607-.608c.615.616 1.67.312 1.87-.535l1.774-7.664c.056-.24.032-.463-.048-.671.472.208.783.72.656 1.279z"></path>
</svg>
